<svg xmlns="http://www.w3.org/2000/svg" width="189.668" height="53.35"><path fill="#006DB6" stroke="#000" d="M.79 33.91l6.49-1.25q0 .97.03 1.71.04.73.19 1.6.15.87.4 1.43.26.55.72.93.47.38 1.1.38 1.9 0 1.9-2.43 0-3.32-3.74-6.61l-1.99-1.69q-.95-.79-1.51-1.31-.57-.53-1.33-1.43-.76-.89-1.2-1.73-.43-.83-.73-2.01Q.81 20.32.81 19q0-3.85 2.44-6.09 2.45-2.24 6.49-2.24 3.36 0 5.71 2.39 2.36 2.39 2.36 5.77l-.02.22v.53l-6.61.92q0-.2.03-.61.02-.41.02-.68 0-.63-.09-1.21-.08-.58-.29-1.16-.2-.58-.62-.92-.42-.35-1.02-.35-1.05 0-1.58.83t-.53 1.95q0 .99.31 1.85.31.86.93 1.61.62.74 1.15 1.23.53.5 1.41 1.21.88.71 1.25 1.04 1.35 1.2 2.28 2.25.93 1.04 1.76 2.36.83 1.32 1.24 2.85.41 1.53.41 3.3 0 3.33-2.37 5.44-2.37 2.12-5.77 2.12-2.19 0-3.9-.81-1.7-.81-2.75-2.19Q2 39.22 1.44 37.53q-.56-1.69-.65-3.62zm19.37 9.05V11.32h5.93v10.34q.86-.97 2.04-1.57 1.19-.6 2.46-.6 1.21 0 2.17.78.95.77 1.42 1.9.47 1.12.47 2.32v18.47h-5.93V26.03q0-.07.01-.3.01-.24 0-.39-.01-.15-.02-.39 0-.24-.06-.38-.05-.14-.14-.29-.09-.16-.24-.23-.14-.07-.36-.07-.35 0-.75.28-.41.28-.58.47-.18.2-.49.56v17.67h-5.93zm25.88-5.89V25.72q0-1.74-1.36-1.74-1.21 0-1.21 1.74v11.35q0 .39.03.64.02.26.13.6.1.34.37.52.26.18.68.18 1.36 0 1.36-1.94M37.55 37v-9.75q0-3.68 1.73-5.71t5.4-2.03q3.68 0 5.45 2.03 1.78 2.03 1.78 5.71V37q0 2.87-2.13 4.67-2.13 1.8-5.1 1.8-1.91 0-3.53-.78-1.62-.78-2.61-2.29-.99-1.5-.99-3.4zm17.38 5.96V20.02h5.89v1.86q1.35-2.19 3.16-2.19.51 0 1.6.17v5q-1.63-.18-2.3-.18-1.21 0-1.84.75-.62.74-.62 2.13v15.4h-5.89zm12.96-7.87V23.98H66.2v-3.96h1.69v-7.54h5.92v7.54h2.85v3.96h-2.85v12.53q0 .95.35 1.41.35.47 1.25.47 1.02 0 1.72-.1v4.58q-1.16.35-3.74.35-1.04 0-1.87-.24-.84-.25-1.41-.66-.57-.41-.98-1.05-.42-.63-.65-1.29-.24-.66-.37-1.54-.14-.88-.18-1.63-.04-.76-.04-1.72zm11.16-2.69V21.92q0-11.21 9.17-11.21 1.94 0 3.44.51 1.5.52 2.52 1.44 1.02.91 1.68 2.25.66 1.33.95 2.9.29 1.56.29 3.44v2.73h-6.29v-2.92q0-.86-.04-1.49-.03-.62-.18-1.42-.15-.8-.41-1.3-.25-.5-.75-.85-.5-.36-1.21-.36-2.77 0-2.77 4.68v13.66q0 4.66 2.77 4.66.83 0 1.39-.48.57-.47.81-1.34.25-.87.34-1.71.08-.83.08-1.9v-3.26h6.26v2.68q-.03 1.81-.3 3.33-.26 1.53-.89 2.98-.64 1.44-1.61 2.43-.98.99-2.52 1.6-1.55.61-3.56.61-2.05 0-3.64-.59-1.59-.59-2.62-1.58-1.03-1-1.7-2.45-.67-1.45-.94-3.05-.27-1.6-.27-3.51zM99.9 18.02v-5.54h5.92v5.54H99.9m0 24.94V20.02h5.92v22.94H99.9zm9.26 0V20.02h5.89v1.86q1.35-2.19 3.16-2.19.51 0 1.6.17v5q-1.63-.18-2.3-.18-1.21 0-1.84.75-.62.74-.62 2.13v15.4h-5.89zm11.6-5.87v-9.84q0-3.66 1.74-5.71t5.31-2.05q3.59 0 5.32 2.04 1.73 2.04 1.73 5.72v2h-5.82v-2.62q0-1.37-.24-2.01-.23-.64-.99-.64-1.12 0-1.12 1.74v11.35q0 1.94 1.12 1.94.42 0 .68-.18.25-.18.37-.6.11-.42.15-.87.03-.45.03-1.25v-2.45h5.82v3.43q0 1.9-.98 3.38-.99 1.49-2.59 2.24-1.6.76-3.48.76-2.9 0-4.97-1.77-2.08-1.76-2.08-4.61zm16.47 1.42V20.02h5.93v17.05q0 1.94.8 1.94t1.85-1.3V20.02h5.92v22.94h-5.92v-1.99q-.9 1.09-2.09 1.8-1.2.7-2.43.7-1.81 0-2.93-1.54-1.13-1.54-1.13-3.42zm17.84-20.49v-5.54H161v5.54h-5.93m0 24.94V20.02H161v22.94h-5.93zm9.67-7.87V23.98h-1.69v-3.96h1.69v-7.54h5.93v7.54h2.84v3.96h-2.84v12.53q0 .95.35 1.41.35.47 1.25.47 1.02 0 1.72-.1v4.58q-1.16.35-3.75.35-1.03 0-1.87-.24-.83-.25-1.4-.66-.58-.41-.99-1.05-.41-.63-.65-1.29-.24-.66-.37-1.54t-.17-1.63q-.05-.76-.05-1.72zm10.36 2.33l4.53-1.61.28.81q.11.29.36.85.26.55.49.85.24.3.62.55.38.26.8.26 1.11 0 1.11-1.3 0-.48-.22-.98t-.46-.86q-.24-.36-.83-.94-.58-.58-.9-.86-.32-.28-1.11-.95l-.97-.83q-1.88-1.63-2.95-3.21-1.07-1.58-1.07-3.52 0-1.49.62-2.7.63-1.2 1.68-1.94 1.06-.74 2.37-1.13 1.31-.4 2.75-.4 1.28 0 2.46.55 1.18.54 2.06 1.45.89.9 1.54 2.04.65 1.13 1 2.38l-4.25 1.46q-.21-.53-.35-.87-.14-.35-.45-.9t-.6-.89q-.29-.33-.71-.59-.42-.25-.88-.25-.61 0-.96.44-.34.44-.34 1 0 .77.85 1.73.86.96 2.35 2.21l1.09.96q.88.8 1.52 1.49t1.28 1.57q.65.88.99 1.85.34.97.34 1.93 0 2.78-1.96 4.59t-4.74 1.81q-2.69 0-4.64-1.67-1.95-1.67-2.7-4.38z"/></svg>